<svg width="1360" height="137" viewBox="0 0 1360 137" fill="none" xmlns="http://www.w3.org/2000/svg">
<path d="M40.3509 134.927V30.1513H0V2.0729H115.585V30.1513H75.2337V134.927H40.3509Z" fill="#D8D8D8" fill-opacity="0.99"/>
<path d="M243.368 134.927V2.0729H278.251V53.3301H331.8V2.0729H366.683V134.927H331.8V81.7854H278.251V134.927H243.368Z" fill="#D8D8D8" fill-opacity="0.99"/>
<path d="M504.363 134.927V2.0729H599.772V28.6437H537.737V54.0839H595.246V80.8432H537.737V108.168H599.772V134.927H504.363Z" fill="#D8D8D8" fill-opacity="0.99"/>
<path d="M727.894 68.4058C727.894 54.5864 730.596 42.5887 736.002 32.4127C741.407 22.111 749.138 14.1334 759.194 8.48006C769.25 2.82669 781.129 0 794.831 0C808.659 0 820.6 2.82669 830.657 8.48006C840.713 14.1334 848.444 22.111 853.849 32.4127C859.38 42.5887 862.146 54.5864 862.146 68.4058C862.146 82.0995 859.38 94.0972 853.849 104.399C848.444 114.701 840.713 122.741 830.657 128.52C820.6 134.173 808.659 137 794.831 137C781.129 137 769.25 134.173 759.194 128.52C749.263 122.741 741.533 114.701 736.002 104.399C730.596 94.0972 727.894 82.0995 727.894 68.4058ZM764.285 68.4058C764.285 80.8432 766.799 90.5796 771.827 97.6149C776.855 104.525 784.523 107.979 794.831 107.979C805.139 107.979 812.87 104.525 818.023 97.6149C823.177 90.5796 825.754 80.8432 825.754 68.4058C825.754 55.9684 823.177 46.2948 818.023 39.3851C812.87 32.4755 805.139 29.0206 794.831 29.0206C784.523 29.0206 776.855 32.4755 771.827 39.3851C766.799 46.1692 764.285 55.8427 764.285 68.4058Z" fill="#D8D8D8" fill-opacity="0.99"/>
<path d="M996.154 134.927V2.0729H1021.8L1089.11 85.5543H1083.64V2.0729H1115.89V134.927H1090.24L1023.31 51.4457H1028.77V134.927H996.154Z" fill="#D8D8D8" fill-opacity="0.99"/>
<path d="M1303.43 137C1292.75 137 1282.57 135.744 1272.89 133.231C1263.33 130.593 1255.29 127.075 1248.75 122.678L1258.56 95.7304C1262.71 98.3686 1267.23 100.63 1272.13 102.514C1277.04 104.399 1282.13 105.906 1287.41 107.037C1292.81 108.042 1298.28 108.545 1303.81 108.545C1312.11 108.545 1317.83 107.477 1320.97 105.341C1324.24 103.205 1325.87 100.442 1325.87 97.0495C1325.87 94.0344 1324.8 91.7102 1322.67 90.077C1320.53 88.3182 1316.51 86.8106 1310.6 85.5543L1287.59 80.8432C1275.4 78.3306 1266.29 73.9963 1260.25 67.8404C1254.22 61.5589 1251.2 53.3929 1251.2 43.3425C1251.2 34.5484 1253.53 26.9477 1258.18 20.5406C1262.96 14.0078 1269.62 8.98257 1278.17 5.46492C1286.71 1.82164 1296.71 0 1308.15 0C1317.57 0 1326.44 1.31912 1334.73 3.95735C1343.03 6.46997 1349.82 9.98762 1355.1 14.5103L1345.29 39.762C1340.26 36.1188 1334.61 33.3549 1328.32 31.4704C1322.04 29.4603 1315.06 28.4553 1307.39 28.4553C1300.1 28.4553 1294.57 29.586 1290.8 31.8473C1287.15 33.983 1285.33 37.061 1285.33 41.0812C1285.33 43.845 1286.4 46.232 1288.54 48.2421C1290.8 50.1265 1294.89 51.6969 1300.79 52.9532L1323.42 57.4759C1335.61 59.8629 1344.73 64.1343 1350.76 70.2902C1356.92 76.4461 1360 84.4865 1360 94.4113C1360 102.954 1357.61 110.429 1352.83 116.836C1348.18 123.243 1341.65 128.206 1333.23 131.724C1324.8 135.241 1314.87 137 1303.43 137Z" fill="#D8D8D8" fill-opacity="0.99"/>
</svg>
