<svg width="200" height="50" viewBox="0 0 200 50" fill="none" xmlns="http://www.w3.org/2000/svg">
<path d="M63.9531 0L28.6484 39.6287L21.0831 7.36237C20.1289 3.073 16.0396 0 11.3368 0H0.5L12.2228 50H19.3792H31.102L75.6761 0H63.9531Z" fill="#121212"/>
<path d="M110.623 5.69783H142.546L144.17 0H102.642C85.6654 0 70.921 10.9475 66.7954 26.5046L60.6406 50H79.1726L85.5977 29.3854H121.106L122.797 23.6877H87.4239L88.1003 21.575C91.0087 12.1639 100.207 5.69783 110.623 5.69783Z" fill="#121212"/>
<path d="M196.643 12.2606C199.115 3.25671 198.514 0 175.658 0C155.074 0 149.995 0.0638574 146.586 12.069C144.715 18.2631 144.648 21.5838 149.794 23.1162C142.242 24.4573 140.037 27.0115 137.363 36.5902C134.155 47.8929 133.554 50 160.019 50C182.942 50 187.62 49.5531 191.697 36.654C194.17 28.5442 194.905 24.8404 187.019 23.244C192.299 21.9029 194.571 20.115 196.643 12.2606ZM175.257 30.1406L172.517 39.9106C171.715 42.8481 168.841 44.8915 165.499 44.8915H157.279C155.14 44.8915 153.603 43.0396 154.138 41.1879L157.079 31.3537C157.947 28.4802 160.821 26.5006 164.096 26.5006H172.116C174.254 26.5006 175.791 28.2887 175.257 30.1406ZM180.804 9.57856L179.2 15.198C178.398 18.0716 175.457 20.115 172.182 20.115H164.23C162.091 20.115 160.487 18.2631 161.088 16.4113L162.759 10.7919C163.628 7.91827 166.502 5.93871 169.777 5.93871H177.663C179.801 5.93871 181.338 7.72671 180.804 9.57856Z" fill="#121212"/>
</svg>
