<svg width="188" height="50" viewBox="0 0 188 50" fill="none" xmlns="http://www.w3.org/2000/svg">
<path d="M60.1131 0L26.9498 39.5954L19.8887 7.34104C18.9048 3.06358 15.1428 0 10.6863 0H0.5L11.4966 50H18.2682H29.2648L71.1097 0H60.1131Z" fill="#151515"/>
<path d="M104.389 5.66475H134.601L136.163 0H96.865C80.8332 0 66.8269 10.9249 62.9491 26.474L57.1035 50H74.6981L80.7752 29.4219H114.402L115.964 23.7573H82.4536L83.0902 21.6762C85.8105 12.1387 94.492 5.66475 104.389 5.66475Z" fill="#151515"/>
<path d="M134.138 16.2428C138.189 2.65896 143.225 0 164.986 0C189.237 0 190.742 1.90752 184.144 24.2775C177.835 45.6069 174.478 49.7687 150.054 49.7687H125.167L126.903 43.8729C127.945 43.8729 151.038 43.8729 151.848 43.8729C159.025 43.8729 161.166 42.0808 164.234 32.7746H155.552C155.089 32.7746 154.626 32.7746 154.163 32.7746C153.353 32.7746 152.543 32.7746 151.79 32.7746H151.733C133.038 32.5433 130.202 29.5375 134.138 16.2428ZM157.057 26.8785C157.462 26.8785 165.97 26.9365 165.97 26.9365C171.584 8.84394 173.899 6.12717 163.192 6.12717C156.421 6.12717 153.932 7.45665 151.385 16.1272C148.723 24.971 149.88 26.6475 157.057 26.8785Z" fill="#151515"/>
</svg>
