<svg width="152" height="923" viewBox="0 0 152 923" fill="none" xmlns="http://www.w3.org/2000/svg">
<path d="M149.7 856.125L2.29989 923L2.29989 881.621L114.366 833.972V845.467L2.29988 798.027L2.29988 758.111L149.7 824.986L149.7 856.125Z" fill="black" fill-opacity="0.03"/>
<path d="M149.7 748.701H2.29988L2.29988 710.039H149.7V748.701Z" fill="black" fill-opacity="0.03"/>
<path d="M149.7 682.781H2.29988L2.29988 654.359L94.9216 579.752V585.812H2.29988L2.29987 550.076H149.7V578.498L57.0784 652.688V646.627H149.7V682.781Z" fill="black" fill-opacity="0.03"/>
<path d="M149.7 522.981H2.29987L2.29987 419.534H31.7799L31.7799 484.319H61.6781L61.6781 424.34H91.1582V484.319H149.7V522.981Z" fill="black" fill-opacity="0.03"/>
<path d="M149.7 430.14L2.29987 361.174L2.29986 329.827L149.7 260.444V299.106L109.139 316.87L119.802 302.032V388.552L109.139 373.923L149.7 391.477L149.7 430.14ZM42.0248 345.71L100.358 370.161L90.531 376.012L90.531 314.78L100.358 320.004L42.0248 344.665V345.71Z" fill="black" fill-opacity="0.03"/>
<path d="M152 197.797C152 209.64 150.606 220.925 147.818 231.653C144.891 242.241 140.989 251.158 136.11 258.403L106.212 247.536C109.139 242.938 111.648 237.922 113.739 232.489C115.829 227.055 117.502 221.412 118.757 215.561C119.872 209.57 120.429 203.509 120.429 197.379C120.429 188.184 119.244 181.845 116.875 178.361C114.505 174.739 111.439 172.928 107.675 172.928C104.33 172.928 101.751 174.112 99.9395 176.481C97.9881 178.849 96.3155 183.307 94.9216 189.856L89.6946 215.352C86.9069 228.866 82.0981 238.967 75.2682 245.655C68.299 252.342 59.2389 255.686 48.088 255.686C38.331 255.686 29.8982 253.109 22.7895 247.954C15.5415 242.659 9.96607 235.275 6.06327 225.801C2.02109 216.327 5.54439e-07 205.251 0 192.572C-4.56955e-07 182.123 1.46355 172.301 4.39064 163.106C7.17836 153.91 11.0812 146.387 16.099 140.535L44.1155 151.402C40.0734 156.975 37.0069 163.245 34.9161 170.211C32.6859 177.177 31.5708 184.91 31.5708 193.408C31.5708 201.489 32.8253 207.619 35.3342 211.799C37.7038 215.839 41.1188 217.86 45.5791 217.86C48.6456 217.86 51.2939 216.675 53.5241 214.307C55.6149 211.799 57.3572 207.271 58.751 200.723L63.7689 175.645C66.4172 162.13 71.1563 152.029 77.9862 145.342C84.8161 138.515 93.7368 135.102 104.748 135.102C114.227 135.102 122.52 137.749 129.629 143.043C136.737 148.198 142.243 155.443 146.146 164.777C150.049 174.112 152 185.119 152 197.797Z" fill="black" fill-opacity="0.03"/>
<path d="M149.7 82.3851L33.4525 82.3851V127.108L2.29985 127.108L2.29985 -0.999999L33.4525 -1V43.7228L149.7 43.7228V82.3851Z" fill="black" fill-opacity="0.03"/>
</svg>
